Coordinates
version=1
nRows=7
nColumns=40
inDegrees=yes

Units are S.I. units (second, meters, Newtons, ...)
Angles are in degrees.

endheader
time	pelvis_tilt	pelvis_list	pelvis_rotation	pelvis_tx	pelvis_ty	pelvis_tz	hip_flexion_r	hip_adduction_r	hip_rotation_r	knee_angle_r	knee_angle_r_beta	ankle_angle_r	subtalar_angle_r	mtp_angle_r	hip_flexion_l	hip_adduction_l	hip_rotation_l	knee_angle_l	knee_angle_l_beta	ankle_angle_l	subtalar_angle_l	mtp_angle_l	lumbar_extension	lumbar_bending	lumbar_rotation	arm_flex_r	arm_add_r	arm_rot_r	elbow_flex_r	pro_sup_r	wrist_flex_r	wrist_dev_r	arm_flex_l	arm_add_l	arm_rot_l	elbow_flex_l	pro_sup_l	wrist_flex_l	wrist_dev_l
      1.32000000	      0.68211009	     -4.84890110	      3.37717847	     -0.17478436	      0.88886042	     -1.19509981	     18.58275751	      5.80293958	    -18.85464633	    -18.67139562	     -0.32587733	     -3.28296224	     -1.24957925	     -2.63288645	     -9.98738857	      5.04032399	     10.50734318	    -31.36823314	     -0.54747895	     -7.76146668	    -11.07149223	     -6.81939164	     -4.85542404	      7.44094785	     -4.77940590	     -1.74030684	     -9.46527082	     18.25536193	     11.48066383	     89.95437384	      0.00000000	      0.00000000	     12.44172590	      9.19467279	     -7.17224197	     36.49079742	     89.95437384	      0.00000000	      0.00000000
      1.33000000	      0.30459694	     -5.31433705	      3.19715582	     -0.16439311	      0.88990104	     -1.19409565	     18.05323418	      6.46437070	    -18.87386950	    -18.26394381	     -0.31876595	     -2.81757732	     -0.59478792	     -2.35649928	     -8.42323160	      6.10372827	     11.02103002	    -33.87137280	     -0.59116698	    -11.12610386	    -10.96262309	     -6.63309125	     -4.38611433	      7.89526314	     -4.31336351	     -1.68621623	     -9.68598882	     18.68251720	     11.67423446	     89.95437384	      0.00000000	      0.00000000	     11.92110355	      8.93884303	     -7.34203110	     35.60906430	     89.95437384	      0.00000000	      0.00000000
      1.34000000	      0.18996561	     -5.32243849	      3.08247383	     -0.15424781	      0.89118272	     -1.19353783	     17.32763026	      6.61394461	    -18.76531279	    -18.10408811	     -0.31597595	     -2.09237580	     -0.27544833	     -2.31203678	     -7.19980762	      6.40844676	     10.66414299	    -36.04267436	     -0.62906334	    -14.03079052	     -9.36958838	     -6.10255093	     -4.26196696	      7.87376947	     -3.87248573	     -1.47062240	     -9.80599138	     18.64292199	     11.69044038	     89.95437384	      0.00000000	      0.00000000	     11.56536797	      8.65061462	     -7.41787818	     34.51900491	     89.95437384	      0.00000000	      0.00000000
      1.35000000	      0.17415416	     -5.25128348	      2.98214210	     -0.14439009	      0.89226161	     -1.19293334	     16.54504977	      6.67172159	    -18.61785242	    -18.01656230	     -0.31444833	     -1.50967207	      0.11413797	     -2.30491866	     -5.90793017	      6.68047308	     10.36962887	    -38.42309008	     -0.67060943	    -16.06844607	     -8.08865371	     -5.76352864	     -4.30478434	      7.75233348	     -3.45813435	     -1.25267515	     -9.93913326	     18.68999760	     11.92360928	     89.95437384	      0.00000000	      0.00000000	     11.21337882	      8.46995922	     -7.50239388	     33.54458175	     89.95437384	      0.00000000	      0.00000000
      1.36000000	     -0.10301698	     -5.52240954	      2.94587807	     -0.13474734	      0.89258234	     -1.19224222	     16.06699939	      7.04936194	    -18.87952610	    -17.82249861	     -0.31106128	     -0.82677920	      0.73165225	     -2.31587019	     -4.15230119	      7.30432415	      9.83765232	    -41.01405438	     -0.71583029	    -16.89065542	     -7.04459339	     -5.77541229	     -4.03518741	      8.00113932	     -3.00289647	     -1.12786085	    -10.18274978	     18.89409888	     12.27039352	     89.95437384	      0.00000000	      0.00000000	     10.87733259	      8.21036869	     -7.73738954	     32.51828275	     89.95437384	      0.00000000	      0.00000000
      1.37000000	     -0.44594657	     -5.57847547	      2.95867001	     -0.12580500	      0.89240859	     -1.19146420	     15.91193854	      7.08031680	    -19.33762234	    -18.08074512	     -0.31556853	     -0.17753821	      1.50387757	     -2.26156563	     -2.16177369	      7.66844275	      9.18427145	    -43.76213101	     -0.76379327	    -16.02244681	     -5.92571162	     -6.48372592	     -3.77370699	      7.95688187	     -2.71395891	     -0.84606026	    -10.40820822	     19.45759422	     12.72398906	     89.95437384	      0.00000000	      0.00000000	     10.58963183	      8.14276578	     -8.07545776	     31.46834749	     89.95437384	      0.00000000	      0.00000000
      1.38000000	     -0.19436419	     -5.70276708	      2.97136019	     -0.11629746	      0.89293721	     -1.19069822	     14.90963141	      7.34354649	    -19.38549243	    -18.04208388	     -0.31489377	      0.63866263	      1.94158552	     -2.37449362	     -1.00204295	      8.18539997	      8.85904304	    -46.04701460	     -0.80367202	    -14.98160027	     -5.12173222	     -6.67626810	     -4.13550970	      8.02514272	     -2.36769585	     -0.41932959	    -10.56795060	     19.55046207	     13.01528298	     89.95437384	      0.00000000	      0.00000000	     10.43679768	      7.97720704	     -8.24238426	     30.14759066	     89.95437384	      0.00000000	      0.00000000
